<svg width="8" height="15" viewBox="0 0 8 15" fill="none" xmlns="http://www.w3.org/2000/svg">
<path d="M1.40044 1.20452C1.10754 0.911636 0.632667 0.911644 0.339778 1.20454C0.04689 1.49744 0.0468978 1.97231 0.339796 2.2652L1.40044 1.20452ZM6.92457 7.78912L7.4549 8.31945L7.98524 7.78911L7.45489 7.25878L6.92457 7.78912ZM0.339787 13.3132C0.0468939 13.6061 0.0468939 14.081 0.339787 14.3739C0.63268 14.6668 1.10755 14.6668 1.40045 14.3739L0.339787 13.3132ZM0.339796 2.2652L6.39425 8.31946L7.45489 7.25878L1.40044 1.20452L0.339796 2.2652ZM6.39424 7.25879L0.339787 13.3132L1.40045 14.3739L7.4549 8.31945L6.39424 7.25879Z" fill="#212121"/>
</svg>
